/* XPM */
static char * icon_user_dead_xpm[] = {
"16 16 5 1",
" 	c None",
".	c #C8C8C8",
"+	c #808080",
"@	c #FFFFFF",
"#	c #D8D8D8",
"                ",
"       ..++     ",
"     .....+++   ",
"    ...@@@..++  ",
"     ...@@@..++ ",
"       .@@@@..+ ",
"       .@@@@@.+ ",
"    ....@@@@..+ ",
"   ...@@@@@@..+ ",
"   .......@@..+ ",
"   .  .. .@#.++ ",
"        ....++  ",
"    . ......+   ",
"   .........+   ",
"   ...+++...+   ",
"    ++    ...+  "};
