/* XPM */
static char * icon_channel_xpm[] = {
"16 16 5 1",
" 	c None",
".	c #6B4C06",
"+	c #000000",
"@	c #EED680",
"#	c #D1940C",
"  .++.    .++.  ",
"  +@#+    +@#+  ",
".++@#++++++@#++.",
"+@@@@@@@@@@@@@@+",
"+##@#######@###+",
".++@#.++++.@#++.",
"  +@#+    +@#+  ",
"  +@#+    +@#+  ",
"  +@#+    +@#+  ",
"  +@#+    +@#+  ",
".++@#.++++.@#++.",
"+@@@@@@@@@@@@@@+",
"+##@#######@###+",
".++@#++++++@#++.",
"  +##+    +##+  ",
"  .++.    .++.  "};
