/* XPM */
static char * icon_quote_button_xpm[] = {
"20 20 7 1",
" 	c None",
".	c #000000",
"+	c #9DB8D2",
"@	c #7590AE",
"#	c #314E6C",
"$	c #D1940C",
"%	c #EED680",
"                    ",
"      ......        ",
"    ..++++++..      ",
"   .++@@@@@@++.     ",
"  .+@@@@@@.@@@#.    ",
" .+@@@@@@$.@@@@#.   ",
" .+@@@@@$%.@@@@#.   ",
".+@@@@@$%%..........",
".+@@@@$%%%%%%%%%%%%.",
".+@@@$%%$$%%%%%%%%%.",
".+@@@.%$$$$$$$$$$$$.",
".+@@@@.$$$$$$$$$$$$.",
".+@@@@@.$$..........",
" .+@@@@@.$.@@@@#.   ",
" .+@@@@@@..@@@@#.   ",
"  .#@@@@@@.@@@#.    ",
"   .##@@@@@@##.     ",
"    ..######..      ",
"      ......        ",
"                    "};
