/* XPM */
static char * icon_status_xpm[] = {
"16 16 4 1",
" 	c None",
".	c #000000",
"+	c #D1940C",
"@	c #EED680",
" ............   ",
".+@@@@@@@@@@+.  ",
".@@@@@@@@@@@@+. ",
" .@..@@..@..@@. ",
" .@@@@@@@@@@@@+.",
"  .@..@@...@.@+.",
"  .@@@@@@@@@@@@.",
"  .@..@@.@....@.",
"  .@@@@@@@@@@@@.",
"  .@..@@...@..@.",
"  .@@@@@@@@@@@+.",
"  .@..@@..@...@.",
"  .@@@@@@@@@@@+.",
"  .@@@@@@@@+@+@.",
"  .+@@@@+@+@+@+.",
"   ............ "};
