/* XPM */
static char * icon_user_inactive_xpm[] = {
"16 16 6 1",
" 	c None",
".	c #9C9C9C",
"+	c #BCBCBC",
"@	c #C7C7C7",
"#	c #CECECE",
"$	c #BABABA",
"                ",
"   .......      ",
"  ..........    ",
"   ..........   ",
"   .+@@@......  ",
"   ...#####.... ",
"   ...######... ",
"  .+@@###..#@.. ",
" .+++@@###.@+.. ",
" +++@@@##.#@+.. ",
"   .+@##.#@@+.. ",
"    ..@#@@@++.  ",
"    .+@@@+++..  ",
"    .+@+++.$.   ",
"    .+++.$$$..  ",
"     ..$$$$...  "};
